<?xml version="1.0" encoding="utf-8"?>
<!-- Generator: Adobe Illustrator 27.6.1, SVG Export Plug-In . SVG Version: 6.00 Build 0)  -->
<svg version="1.1" id="Слой_1" xmlns="http://www.w3.org/2000/svg" xmlns:xlink="http://www.w3.org/1999/xlink" x="0px" y="0px"
	 viewBox="0 0 500 600" style="enable-background:new 0 0 500 600;" xml:space="preserve">
<style type="text/css">
	.st0{fill:#EFC6DF;}
</style>
<image style="display:none;overflow:visible;" width="1000" height="1000" xlink:href="vocal.png"  transform="matrix(0.5395 0 0 0.5395 -19.7345 30.2655)">
</image>
<path class="st0" d="M250,346.6c43.8-1.9,68.4-23.8,82.1-45.3c11-17.1,16.5-37.2,16.5-57.5v-124c0-13.3-2.5-26.5-7.9-38.7
	c-25-56.9-90.7-58-90.7-58s-65.8,1.1-90.7,58c-5.3,12.2-7.9,25.4-7.9,38.7v124c0,20.3,5.5,40.4,16.5,57.5
	C181.6,322.8,206.2,344.7,250,346.6z"/>
<path class="st0" d="M250,569.7h124c5.5,0,8-7.3,8-7.3c3.1-13.6-2.2-25.3-5.5-31.6c-1.3-2.6-3.1-4.8-4.6-7.3
	c-5.2-8.7-13.1-14.6-20.7-18.4c-9.6-4.9-20.3-7.2-31.1-7.2h-34.6V422C401.2,388,416.4,307.1,417.8,275.6
	c0.5-10.7-4.9-20.9-14.2-26.1c-8.9-4.9-16.7-3-22.6,0.8c-7,4.5-11.8,11.7-13.5,19.8C345.1,375.3,250,372.5,250,372.5
	s-95.1,2.8-117.5-102.3c-1.7-8.1-6.5-15.4-13.5-19.8c-5.9-3.8-13.7-5.8-22.6-0.8c-9.3,5.2-14.7,15.4-14.2,26.1
	C83.6,307.1,98.8,388,214.5,422v75.8h-34.6c-10.8,0-21.5,2.4-31.1,7.2c-7.6,3.9-15.5,9.7-20.7,18.4c-1.5,2.5-3.3,4.8-4.6,7.3
	c-3.3,6.3-8.6,18-5.5,31.6c0,0,2.5,7.3,8,7.3H250z"/>
</svg>
