<?xml version="1.0" encoding="utf-8"?>
<!-- Generator: Adobe Illustrator 27.6.1, SVG Export Plug-In . SVG Version: 6.00 Build 0)  -->
<svg version="1.1" id="Слой_1" xmlns="http://www.w3.org/2000/svg" xmlns:xlink="http://www.w3.org/1999/xlink" x="0px" y="0px"
	 viewBox="0 0 550 700" style="enable-background:new 0 0 550 700;" xml:space="preserve">
<style type="text/css">
	.st0{fill:#EFC6DF;}
</style>
<path class="st0" d="M282.7,147.2h199.9c0,0,14.4-0.4,5.5,11.9L308.5,362.3c0,0-13.9,17.8-12.3,37.4c0.7,8.7,0.8,17.5,0.8,26.3
	v144.7c0,0,0,14.4,17.8,17.8l48.2,10.3c3.4,0.7,6.7,2,9.7,3.7l3.3,1.9c2,1.2,3.7,2.9,4.7,5.1l0.5,1.1c1.1,2.3,1,5-0.3,7.3l0,0.1
	c-1.2,2-2.9,3.7-5.1,4.7l-3.3,1.5c-2.4,1.1-4.9,1.6-7.5,1.6h-82.5V201.4h139.8l31.3-36.8H282.7V147.2z"/>
<path class="st0" d="M282.7,147.2H82.8c0,0-14.4-0.4-5.5,11.9l179.6,203.3c0,0,13.9,17.8,12.3,37.4c-0.7,8.7-0.8,17.5-0.8,26.3
	v144.7c0,0,0,14.4-17.8,17.8l-48.2,10.3c-3.4,0.7-6.7,2-9.7,3.7l-3.3,1.9c-2,1.2-3.7,2.9-4.7,5.1l-0.5,1.1c-1.1,2.3-1,5,0.3,7.3
	l0,0.1c1.2,2,2.9,3.7,5.1,4.7l3.3,1.5c2.4,1.1,4.9,1.6,7.5,1.6h82.5V201.4H142.9l-31.3-36.8h171.1V147.2z"/>
<polygon class="st0" points="400.7,147.2 513.6,27.1 527.2,40.9 427.8,147.2 "/>
</svg>
