<?xml version="1.0" encoding="utf-8"?>
<!-- Generator: Adobe Illustrator 27.6.1, SVG Export Plug-In . SVG Version: 6.00 Build 0)  -->
<svg version="1.1" id="Слой_1" xmlns="http://www.w3.org/2000/svg" xmlns:xlink="http://www.w3.org/1999/xlink" x="0px" y="0px"
	 viewBox="0 0 728.5 612.2" style="enable-background:new 0 0 728.5 612.2;" xml:space="preserve">
<style type="text/css">
	.st0{fill:#EFC6DF;}
	.st1{fill:#9F4B96;}
</style>
<circle class="st0" cx="292.2" cy="333.4" r="257.5"/>
<circle class="st0" cx="624.7" cy="153.4" r="80.9"/>
<polygon class="st0" points="645.9,75.3 659.2,51.6 694.8,72.5 681.6,95.9 "/>
<path class="st0" d="M575.8,217.8L561,244.1v120.3c0,0-4.4,21.9-18.4,29.6l-12.5,38.3c0,0,50.1-29.5,52.7-65.1V250l12.1-21.3
	L575.8,217.8z"/>
<circle class="st1" cx="292.2" cy="333.4" r="79.9"/>
<circle class="st0" cx="292.2" cy="333.4" r="27.8"/>
<circle class="st1" cx="292.2" cy="333.4" r="5.2"/>
<polygon class="st1" points="542.6,393.9 447.3,393.9 447.3,432.2 530.1,432.2 "/>
<circle class="st1" cx="624.7" cy="153.4" r="29.9"/>
</svg>
