<?xml version="1.0" encoding="utf-8"?>
<!-- Generator: Adobe Illustrator 27.6.1, SVG Export Plug-In . SVG Version: 6.00 Build 0)  -->
<svg version="1.1" id="Слой_1" xmlns="http://www.w3.org/2000/svg" xmlns:xlink="http://www.w3.org/1999/xlink" x="0px" y="0px"
	 viewBox="0 0 740 787.2" style="enable-background:new 0 0 740 787.2;" xml:space="preserve">
<style type="text/css">
	.st0{fill:#EFC6DF;}
</style>
<path class="st0" d="M504.8,69.5c0,0-21.5-52.8-69.8-53.1c-48.3-0.3-66.9,34.4-66.9,34.4s-18.6-34.7-66.9-34.4
	c-48.3,0.3-69.7,53.1-69.7,53.1s-13,33.3,6.2,78.8c19.2,45.5,56.8,81.3,56.8,81.3s39,34.5,73.7,50c34.7-15.5,73.7-50,73.7-50
	s37.5-35.9,56.8-81.3C517.8,102.8,504.8,69.5,504.8,69.5z M449.5,185.2c0,0-42.5,49.8-81.8,67.5c-39.3-17.8-81.8-67.5-81.8-67.5
	S248,138.8,252,91.2c4-47.5,47.7-50.5,47.7-50.5c44.9-0.2,55.5,39,55.5,39c5.3,13.3,12.6,11.4,12.6,11.4s7.3,1.9,12.6-11.4
	c0,0,10.6-39.2,55.5-39c0,0,43.6,2.9,47.7,50.5C487.4,138.8,449.5,185.2,449.5,185.2z"/>
<path class="st0" d="M411.4,80.6c0,0,4.8,8.9,15.6,3.3c3-1.5,6.6-1.9,9.7-0.7c3.7,1.5,7.3,5.1,7.2,13.9c-0.1,8.3,4.1,11.2,8.5,12
	c8.5,1.4,16.2-5.4,16.2-14c0-4-1-9.1-3.7-15.5c-4.8-11.4-13.4-16.8-20.8-19.3c-8.7-2.9-18.2-2.4-26.5,1.4
	C410.9,64.9,405.2,70.6,411.4,80.6z"/>
<path class="st0" d="M528.4,241.5V220c0,0-11.8-2.1-15.5-1.3c-7,1.5-15.3,6.2-22.2,19.6c-3.3,6.4-4.9,13.6-4.9,20.8v67.6
	c0,0,0,4.4,1.3,8.6c1.3,4.1,5.2,6.9,9.6,6.9h30.8c0,0-11.2-0.3-16.5-9.9c-2.9-5.3-2.9-11.7-0.3-17.2c2.4-4.9,7.2-10.4,17.4-11.5v-24
	c0,0-13.1-1-19.3,4.5v-22c0-5.8,1.5-9.9,5.2-14.4C517.2,243.8,522,241.3,528.4,241.5"/>
<path class="st0" d="M526.9,241.5V220h-17.2c-6.2-27.7-23.9-47.8-23.9-47.8l12.1-24c0,0,28.9,33,34.4,63.2c0.7,3.8,3.6,6.7,7.3,7.5
	c7,1.5,18,6,24.9,19.4c3.3,6.4,4.9,13.6,4.9,20.8v67.6c0,0,0,4.4-1.3,8.6c-1.3,4.1-5.2,6.9-9.6,6.9h-30.8c0,0,11.2-0.3,16.5-9.9
	c2.9-5.3,2.9-11.7,0.3-17.2c-2.4-4.9-7.2-10.4-17.4-11.5v-24c0,0,13.1-1,19.3,4.5v-22c0-5.8-1.5-9.9-5.2-14.4
	C538.1,243.8,533.3,241.3,526.9,241.5"/>
<path class="st0" d="M207.3,241.5V220c0,0,13.2-1.5,17-0.7c7,1.5,13.8,5.6,20.7,18.9c3.3,6.4,4.9,13.6,4.9,20.8v67.6
	c0,0,0,4.4-1.3,8.6c-1.3,4.1-5.2,6.9-9.6,6.9h-30.8c0,0,11.2-0.3,16.5-9.9c2.9-5.3,2.9-11.7,0.3-17.2c-2.4-4.9-7.2-10.4-17.4-11.5
	v-24c0,0,13.1-1,19.3,4.5v-22c0-5.8-1.5-9.9-5.2-14.4C218.5,243.8,213.7,241.3,207.3,241.5"/>
<path class="st0" d="M208.8,241.5V220h17.2c6.2-27.7,23.9-47.8,23.9-47.8l-12.1-24c0,0-28.9,33-34.4,63.2c-0.7,3.8-3.6,6.7-7.3,7.5
	c-7,1.5-18,6-24.9,19.4c-3.3,6.4-4.9,13.6-4.9,20.8v67.6c0,0,0,4.4,1.3,8.6c1.3,4.1,5.2,6.9,9.6,6.9h30.8c0,0-11.2-0.3-16.5-9.9
	c-2.9-5.3-2.9-11.7-0.3-17.2c2.4-4.9,7.2-10.4,17.4-11.5v-24c0,0-13.1-1-19.3,4.5v-22c0-5.8,1.5-9.9,5.2-14.4
	C197.6,243.8,202.4,241.3,208.8,241.5"/>
<path class="st0" d="M367.7,517.1v127.5c0,0,30.5,74.3,96.4,96.4c65.9,22.2,114.2,6.1,114.2,6.1s88.1-20.8,118.4-118.4
	C727,531.1,658.4,462,658.4,462s-33.9-28.4-33-63.5v-47c0,0-0.3-8-11.2-10.2H447.3c0,0-12.4,0-11.9,11.9v46c0,0-3.2,36.1-34.2,62.4
	C401.3,461.6,370.1,498.4,367.7,517.1z M528.8,690.7c0,0,103.8,2.1,111-111c0,0,5.9-100.8-111.6-111.6h-90.8c0,0-6.8-0.5-3.5-5
	c0,0,30.1-28.9,25-96.8h141.9v31.3c0,0-2.5,30.5,23.7,63.5c0,0,125.8,111.4,0,235.5c0,0-68.2,49.6-107.6,28
	C516.9,724.6,496.6,700.5,528.8,690.7z M529.9,493.6c47.5,0,86.1,38.5,86.1,86.1c0,47.5-38.5,86.1-86.1,86.1
	c-47.5,0-86.1-38.5-86.1-86.1C443.9,532.1,482.4,493.6,529.9,493.6z M414.4,482.8c0,0,8.5,16.1,45.3,9.3c0,0-91.5,84.9,0,172.4
	c0,0,14,15.2,34.7,19.9c0,0-14.4,17.8-5.9,38.1c0,0-88.1-14.8-106.3-119.9C382.2,602.6,365.7,543.8,414.4,482.8z"/>
<path class="st0" d="M336.9,461.6c-30.9-26.3-34.2-62.4-34.2-62.4v-46c0.6-11.9-11.9-11.9-11.9-11.9H124
	c-10.9,2.1-11.2,10.2-11.2,10.2v47c0.9,35.1-33,63.5-33,63.5s-68.6,69-38.3,166.7c30.3,97.6,118.4,118.4,118.4,118.4
	s48.3,16.1,114.2-6.1c65.9-22.2,96.4-96.4,96.4-96.4V517.1C368.1,498.4,336.9,461.6,336.9,461.6z M211.5,728.4
	c-39.9,10.3-97.8-31.8-97.8-31.8c-125.8-124.1,0-235.5,0-235.5c26.3-33,23.7-63.5,23.7-63.5v-31.3h141.9c-5.1,68,25,96.8,25,96.8
	c3.4,4.5-3.5,5-3.5,5h-90.8C92.5,479,98.5,579.8,98.5,579.8c6.4,100.2,88.5,109.9,107.2,110.9c3.2,0.2,6.3,0.8,9.2,2.1
	c12,5.3,13.7,13.1,12.4,19.7C225.6,720.3,219.3,726.4,211.5,728.4z M294.3,578c0.9,48.8-38.9,88.6-87.7,87.7
	c-46-0.9-83.6-38.4-84.4-84.4c-0.9-48.8,38.9-88.6,87.7-87.7C255.9,494.4,293.5,532,294.3,578z M356,602.6
	c-18.2,105-106.3,119.9-106.3,119.9c8.5-20.3-5.9-38.1-5.9-38.1c20.8-4.7,34.7-19.9,34.7-19.9c91.5-87.5,0-172.4,0-172.4
	c36.8,6.8,45.3-9.3,45.3-9.3C372.5,543.8,356,602.6,356,602.6z"/>
</svg>
