<?xml version="1.0" encoding="utf-8"?>
<!-- Generator: Adobe Illustrator 27.6.1, SVG Export Plug-In . SVG Version: 6.00 Build 0)  -->
<svg version="1.1" id="Слой_1" xmlns="http://www.w3.org/2000/svg" xmlns:xlink="http://www.w3.org/1999/xlink" x="0px" y="0px"
	 viewBox="0 0 800 600" style="enable-background:new 0 0 800 600;" xml:space="preserve">
<style type="text/css">
	.st0{fill:#EFC6DF;}
</style>
<path class="st0" d="M671.5,355.6c-1.2,0.6-2.3,0.7-3.3,0.5c-40.5,69.5-118.4,150-268.1,194.4v-0.2c-147-43.6-224.8-122-265.9-190.6
	c-6.7,0.1-13.5,0.2-20.2-0.1c26.1,46.8,103.6,154.1,286,209.7v0c0,0,0,0,0.1,0c0,0,0,0,0.1,0v0c189.2-57.7,265.5-170.9,288.7-214.7
	c-2.4-0.1-4.7-0.2-7.1-0.2C678.5,354.5,674.1,354.3,671.5,355.6z"/>
<path class="st0" d="M712.4,124.7c0,0-48.3-92.8-156.9-94c-108.6-1.3-155.4,94-155.4,94h-0.1c0,0-46.8-95.3-155.4-94
	c-108.6,1.3-156.9,94-156.9,94s-42.5,80.8,2.8,186.6c4.8-3.9,9.9-7.7,15.6-9.9c-16.2-43.3-17.7-73.9-17.7-73.9
	c-7.7-94.6,40-139.9,84.4-161.5c48.1-23.4,104.7-22.8,151.1,3.8c63.1,36.2,76.2,100.5,76.2,100.5l0.1,0.3c0,0,13.1-64.3,76.2-100.5
	c46.4-26.6,103.1-27.3,151.1-3.8c44.4,21.6,92.1,67,84.4,161.5c0,0-1.6,32.1-18.9,77c1.1,0.7,2.1,1.4,3.2,2.2c2.9,2,6,3.2,9.1,4.6
	c1.2,0.5,2.4,1,3.6,1.6C755.5,206.4,712.4,124.7,712.4,124.7z"/>
<path class="st0" d="M747.5,332.4l50.9-22.3L747.5,290v-22.3c0-2.6,0.1-5.1,0.2-7.7c1-14-1.5-18.1-3-19.3c-1-0.8-2-1.5-2.9-2.4
	c-5.5-5.2-12.8-8-12.8-8v9.9c0,0,30.5,12-18.4,22.7c0,0-125.1,33-310.1,27.1c-185.5,6-311-27-311-27C40.5,252.2,71,240.2,71,240.2
	v-9.9c0,0-7.3,2.8-12.8,8c-0.9,0.9-1.9,1.6-2.9,2.4c-1.5,1.2-3.8,5.1-3.1,18.2c0.2,3.2,0.3,6.3,0.3,9.5V290L1.7,310.1l50.9,22.3
	l0.3,10.1c0,1.3,0,2.7,0,4c0,3.1,3.5,14.4,52,25.3c0,0,146.8,29.6,295.4,23.6c-0.2,0-0.5,0-0.7,0l0.9,0c0,0-0.1,0-0.2,0
	c148.4,5.9,294.8-23.6,294.8-23.6c48.5-10.9,52.1-22.2,52-25.3c0-1.3-0.1-2.7,0-4L747.5,332.4z M66.7,329l-44.3-17.4l44.3-17.4
	C66.7,294.3,77.3,308.3,66.7,329z M147.5,347.6l-61.7-14.8l55.3-31.1C141.1,301.7,157.7,318.2,147.5,347.6z M235.9,357.4l-61.7-14.8
	l55.3-31.1C229.4,311.5,246,328,235.9,357.4z M273.1,375.3l26.6-57.6c0,0,23.1,3.7,32.1,33.5L273.1,375.3z M395.2,394.2l-24-58.7
	c0,0,18.5-14.4,46.4-0.7L395.2,394.2z M453.5,351.2c9-29.8,32.1-33.5,32.1-33.5l26.6,57.6L453.5,351.2z M558.2,357.4
	c-10.2-29.4,6.4-45.9,6.4-45.9l55.3,31.1L558.2,357.4z M645.9,347.6c-10.2-29.4,6.4-45.9,6.4-45.9l55.3,31.1L645.9,347.6z
	 M725.7,328.8c0,0-10.6-14,0-34.7l44.2,17.4L725.7,328.8z"/>
</svg>
