<?xml version="1.0" encoding="utf-8"?>
<!-- Generator: Adobe Illustrator 27.6.1, SVG Export Plug-In . SVG Version: 6.00 Build 0)  -->
<svg version="1.1" id="Слой_1" xmlns="http://www.w3.org/2000/svg" xmlns:xlink="http://www.w3.org/1999/xlink" x="0px" y="0px"
	 viewBox="0 0 400 600" style="enable-background:new 0 0 400 600;" xml:space="preserve">
<style type="text/css">
	.st0{fill:#EFC6DF;}
</style>
<polygon class="st0" points="236.2,325.7 196,303.1 196,301.2 204.6,286.3 206.3,286.3 246.4,308.8 "/>
<path class="st0" d="M258.8,567.1h59.8c3.2-63.5-18.5-75.5-18.5-75.5c13.8-12.7-2-21.2-2-21.2c8.4-12-4.3-18.6-4.3-18.6
	c8.7-14.9-5.4-19.5-5.4-19.5c8.2-14.8-6.9-19.2-6.9-19.2v-87.5c0.3-16.8-14.3-17.9-14.3-17.9v-8.1c0-4.8,0.7-9.5,2-14.1
	c8.1-28.8-2.7-40.1-2.7-40.1c16.5-31.1,0.8-52,0.8-52c9.6-18.2,4.3-41.5,1.1-52c-3.2-10.5-3.4-21.7-0.1-32.1c1-3.2,1.9-5.3,1.9-5.3
	l25.5,0c2.3,0,4.6-0.2,6.9-0.6c16.9-3.4,20.9-16.8,21.8-21.6c0.2-1.1-0.1-2.1-0.9-2.9v0c-0.5-0.5-1.1-0.7-1.8-0.7h-54.1v-24H279
	c1.5,0,2.9-0.6,3.9-1.7v0c1.6-1.8,2.6-4.1,2.6-6.5v-6.7c0-2.2-0.9-4.3-2.5-5.8v0c-1.3-1.2-3-1.9-4.8-1.9c0,0-19.2,0-19.2,0h-19.2
	c-1.8,0-3.5,0.7-4.8,1.9v0c-1.6,1.5-2.5,3.6-2.5,5.8V46c0,2.4,0.9,4.7,2.6,6.5v0c1,1.1,2.4,1.7,3.9,1.7H250v24h-54.1
	c-0.7,0-1.3,0.3-1.8,0.7v0c-0.8,0.8-1.1,1.8-0.9,2.9c0.9,4.8,5,18.2,21.8,21.6c2.3,0.5,4.6,0.6,6.9,0.6l25.5,0c0,0,0.9,2,1.9,5.3
	c3.3,10.4,3.1,21.6-0.1,32.1c-3.2,10.5-8.5,33.8,1.1,52c0,0-15.7,20.9,0.8,52c0,0-10.7,11.3-2.7,40.1c1.3,4.6,2,9.3,2,14.1v8.1
	c0,0-14.6,1.1-14.3,17.9v87.5c0,0-15,4.3-6.9,19.2c0,0-14.1,4.6-5.4,19.5c0,0-12.7,6.7-4.3,18.6c0,0-15.8,8.5-2,21.2
	c0,0-21.7,12-18.5,75.5C199,567.1,258.8,567.1,258.8,567.1z"/>
<path class="st0" d="M203.1,289l-16.1-5.9c-7.6-2.8-15.3-5.1-23.2-7h0c-11.1-2.6-22.5-4.2-33.9-4.7l-1.6-0.1
	c-9.3-0.4-18.6,0.5-27.6,2.8l-11,2.8c-7.8,2-15.2,5.2-22,9.6l-4.1,2.7c-5,3.3-9.5,7.1-13.6,11.4l-1,1.1c-5.4,5.7-10,12-13.9,18.8
	l0,0c-3.5,6.1-6.2,12.7-8,19.5l-3.8,13.6c-2,7.3-3.2,14.7-3.7,22.2l-0.3,5.4c-0.3,4.5-0.2,9,0.3,13.5l0.9,9.1
	c1,9.7,2.9,19.3,5.6,28.7l0.8,2.8c2,6.8,4.5,13.3,7.6,19.7l3.2,6.5c4,8.3,8.9,16.1,14.6,23.4l9,11.5c4.8,6.1,10.2,11.8,16.2,16.8
	l6.3,5.4c6.9,5.9,14.4,11,22.4,15.3l0,0c10.4,5.6,21.4,10.3,32.7,13.9l4.3,1.4c7.6,2.4,15.5,4.3,23.4,5.5l6.4,1
	c7.7,1.2,15.5,1.8,23.4,1.8h2.3v-12l-12.7-0.7c-6.1-0.4-12.1-1.1-18.1-2.2l-8.2-1.6c-7.6-1.4-15-3.8-22.1-6.9l-19.5-8.7
	c-7.8-3.4-15-7.9-21.5-13.4l-12.5-10.4c-7.3-6-13.7-13-19.1-20.8l-8.2-11.7c-4.3-6.2-7.9-12.9-10.8-19.9l-4.8-11.9
	c-2.8-7-4.9-14.3-6.2-21.8l-0.8-4.9c-1.6-9.1-2-18.4-1.4-27.7l2.4-25.2l0.8-3.5c3.9-14.5,10.3-26,19.2-38.2l2.8-3.8
	c3.7-5,8.2-9.4,13.5-12.8h0c7-4.6,14.7-8.1,22.8-10.3l4.4-1.2c10-2.7,20.4-4,30.7-3.9l0.4,0c5.6,0.1,11.2,0.7,16.7,1.7l12.5,2.5
	c5.9,1.1,11.6,2.7,17.3,4.6l8.2,2.7c2.9,1,5.8,2.1,8.7,3.3l3.4,1.4L203.1,289z"/>
<path class="st0" d="M318.7,548.2v13.2h11.9l0.4,0.4c0.6,0.6,1.5,1,2.3,1h5.5c1,0,2-0.4,2.7-1.1l0.3-0.3l30.3-2.4
	c1.2-0.1,2.1-1.1,2.1-2.3v-4.1c0-0.8-0.6-1.4-1.3-1.5l-31.3-2.9l-0.6-0.6c-0.5-0.5-1.2-0.8-1.9-0.8H333c-0.7,0-1.3,0.3-1.7,0.7
	l-0.8,0.8L318.7,548.2z"/>
</svg>
