<?xml version="1.0" encoding="utf-8"?>
<!-- Generator: Adobe Illustrator 27.6.1, SVG Export Plug-In . SVG Version: 6.00 Build 0)  -->
<svg version="1.1" id="Слой_1" xmlns="http://www.w3.org/2000/svg" xmlns:xlink="http://www.w3.org/1999/xlink" x="0px" y="0px"
	 viewBox="0 0 500 700" style="enable-background:new 0 0 500 700;" xml:space="preserve">
<style type="text/css">
	.st0{fill:#EFC6DF;}
</style>
<path class="st0" d="M252.6,680.6h201.7v-151c0.9-14.6-6.1-26.8-14.6-36c-10.7-11.7-25-19.6-40.5-23l-46.7-10.4
	c-45.4-11.9-46.1-44.9-46.1-44.9c44.9,0,51.7-29.6,51.7-29.6c100.8,18.6,70.3-63.5,70.3-63.5c32.9-8,31.5-32.2,24.7-50.7
	c-4.3-11.8-11.4-22.5-20.4-31.3l-33.1-32.4c9.3-50-13.6-85.6-13.6-85.6c-41.5-73.7-133.5-75.1-133.5-75.1s-96.6,1.4-138.1,75.1
	c0,0-22.9,35.6-13.6,85.6l-33.1,32.4c-9,8.8-16.1,19.5-20.4,31.3c-6.8,18.5-8.2,42.7,24.7,50.7c0,0-30.5,82.2,70.3,63.5
	c0,0,6.8,29.6,51.7,29.6c0,0-0.7,33-46.1,44.9l-46.7,10.4c-15.5,3.5-29.7,11.4-40.5,23c-8.4,9.2-15.4,21.3-14.6,36v151H252.6z"/>
</svg>
