<?xml version="1.0" encoding="utf-8"?>
<!-- Generator: Adobe Illustrator 27.6.1, SVG Export Plug-In . SVG Version: 6.00 Build 0)  -->
<svg version="1.1" id="Слой_1" xmlns="http://www.w3.org/2000/svg" xmlns:xlink="http://www.w3.org/1999/xlink" x="0px" y="0px"
	 viewBox="0 0 300 300" style="enable-background:new 0 0 300 300;" xml:space="preserve">
<style type="text/css">
	.st0{fill:#9F4B96;}
</style>
<path class="st0" d="M209,30H97.8c-35.4,0-64.4,29-64.4,64.4v111.2c0,35.4,29,64.4,64.4,64.4H209c35.4,0,64.4-29,64.4-64.4V94.4
	C273.5,59,244.5,30,209,30z M251.9,197.8c0,27.8-22.7,50.5-50.5,50.5h-92.7c-27.8,0-50.5-22.7-50.5-50.5v-92.7
	c0-27.8,22.7-50.5,50.5-50.5h92.7c27.8,0,50.5,22.7,50.5,50.5V197.8z"/>
<path class="st0" d="M199.9,68.5h-88.7c-21.2,0-38.5,17.4-38.5,38.5v88.7c0,21.2,17.3,38.5,38.5,38.5h88.7
	c21.2,0,38.5-17.3,38.5-38.5v-88.7C238.4,85.9,221.1,68.5,199.9,68.5z M155.6,208.7c-28.7,0-51.9-23.2-51.9-51.9
	c0-28.7,23.2-51.9,51.9-51.9c28.7,0,51.9,23.2,51.9,51.9C207.5,185.5,184.2,208.7,155.6,208.7z M208.4,107.7c-5.5,0-9.9-4.4-9.9-9.9
	c0-5.5,4.4-9.9,9.9-9.9c5.5,0,9.9,4.4,9.9,9.9C218.3,103.3,213.9,107.7,208.4,107.7z"/>
<circle class="st0" cx="155.6" cy="157.3" r="36"/>
</svg>
