<?xml version="1.0" encoding="utf-8"?>
<!-- Generator: Adobe Illustrator 27.6.1, SVG Export Plug-In . SVG Version: 6.00 Build 0)  -->
<svg version="1.1" xmlns="http://www.w3.org/2000/svg" xmlns:xlink="http://www.w3.org/1999/xlink" x="0px" y="0px"
	 viewBox="0 0 2005.8 2488.2" style="enable-background:new 0 0 2005.8 2488.2;" xml:space="preserve">
<style type="text/css">
	.st0{fill:none;stroke:#C738C1;stroke-width:43;stroke-miterlimit:10;}
	.st1{fill:none;stroke:#F7C6EC;stroke-width:45;stroke-miterlimit:10;}
</style>
<g id="Слой_1">
	<path class="st0" d="M266.4,1010.9c0,0-68.2,2.8-42.5,53.3c5,9.8,12.3,18.6,21.2,25.8l125.4,102.1l77.9,57.2
		c18.3,13.4,38.3,24.8,59.5,33.9l35.1,15.1c17.9,7.7,36.6,13.7,55.9,17.9l18.8,4.1c20.6,4.5,41.8,6.8,63,6.8h48.3v-176.2
		c0-25.3-22.3-48.5-44.6-63.5l-32.8-22c-12.9-8.6-26.5-16.3-40.7-23l-26.6-12.5c-26.9-12.6-56.7-19.1-86.9-19.1H266.4z"/>
	<path class="st0" d="M202.8,929.7l-4.6,4.6c-8.6,8.6-12.8,20.7-10.9,32.7c2,12.3,10.4,22.6,37.1,11.4c7.2-3.1,14.7-5.6,22.3-7.4
		l1.8-0.4c11-2.6,22.3-4,33.7-4.1l197-0.9c35.5-0.2,69.4-14.8,94-40.5c40.4-42.1,114.5-99.6,155.9-93.8l-1-334.8h-58.5
		c-26.8,0-53.1,7.7-75.7,22.1l-25,16c-23.7,15.2-45.1,33.6-63.7,54.8l-30.8,35.2c-8.3,9.4-16.2,19.2-23.6,29.3l-51,68.7l-43.9,60.8
		c-8,11.1-16.7,21.7-25.9,31.8l-27.1,29.5c-11.6,12.6-24.2,24.2-37.7,34.7L221.8,913C215.1,918.1,208.8,923.7,202.8,929.7z"/>
	<path class="st0" d="M900.8,476.9l97.9,6.1c32.3,0,64.6,3.5,96.2,10.4l9,2c27.9,6.1,53.7,19.4,74.8,38.5l49,44.4l119.4,114.4
		l111.8,105.5l60.2,58.5c18.3,17.7,37.9,34.1,58.7,48.8l24.9,17.6c4.7,3.3,8.5,7.8,10.7,13.1c3.6,8.5,3,18.7-25.2,12.8
		c-19.2-4-38.6-6.6-58.2-7.4l-54.6-2.3l-131.9,1c-24.1,0.2-47.5-7.6-66.7-22.1l-32.9-24.9c-14.2-10.8-29.3-20.5-45-29l-21.7-11.7
		c-21.4-11.6-44.1-20.4-67.7-26.4l-12.5-3.2c-21.3-5.4-43.1-8.5-65-9.3h0c-21.9-0.8-67.4-34.7-73.1-68.1l-9.1-75.9
		c-7.2-48.9-20.9-108.4-30.8-151.2L900.8,476.9z"/>
	<path class="st0" d="M993,1088.6l45.9-2.7c38-2.2,74.7-13.1,107-31.7l15.2-8.8l34.9-18.6c29.3-15.6,60.7-27.6,93.4-35.6l0.3-0.1
		c7.3-1.8,14.7-3.3,22.1-4.6l57.6-9.8c22.1-3.8,44.5-5.6,67-5.6H1539c8,0,16,0.7,23.8,2.2c18.7,3.7,42.5,13.1,9.5,35.6
		c-4.6,3.2-9.1,6.5-13.6,9.8l-15.6,11.9c-14.9,11.4-30.5,22.2-46.6,32.2l-10.2,6.3c-20.9,13-40.1,28-57.4,44.9l-20.9,20.4
		l-31.3,33.6c-17.5,18.8-36.7,36.3-57.3,52.3l-36.1,28l-38,30.7c-18.4,14.9-39,27.5-61,37.3l-10.9,4.9
		c-23.9,10.7-50.1,16.2-76.6,16.2h-54.9l-43.7,3.1L993,1088.6z"/>
</g>
<g id="Слой_2">
	<path class="st1" d="M789,2409.9c0,0-52.1-324,113.1,0"/>
	<path class="st1" d="M242.7,2416.2l96.7-95.6c10.9-10.8,22.4-21,34.4-30.5l58.9-46.8c23.2-18.5,48.1-34.9,74.2-48.9l16.7-9
		c28.7-15.4,55.8-33.6,81-54.3l78.8-64.6c21.3-17.5,44-33.1,68-46.7l8.7-5c25.1-14.3,52.5-23.9,81-28.5l29.3-4.7
		c24.9-4,50.4-0.9,73.6,9.1l19.7,8.5c27.7,11.9,50.9,32.2,66.2,58.2l39.6,67c7,11.8,13.6,23.7,19.8,35.8l108.5,210.2
		c4.1,7.9,9.6,15.1,16.2,21.1c18.6,17,55.1,42.9,58.3-10.5c0.8-12.5-0.7-25-3.9-37l-14-52.6c-4.4-16.5-13.5-31.4-26.1-42.9
		l-27.6-25.1l-48.3-39.6c-18.6-15.2-29.8-37.7-30.9-61.7l-1.7-36.7c-1-22.5-13.5-42.8-33.1-53.9l-3.1-1.8
		c-24.3-13.8-39.5-39.4-39.9-67.4l-0.6-35"/>
	<path class="st1" d="M466.3,2171.7l99.4-138.9c24.3-34,50.9-66.3,79.6-96.7l62.4-66.2l115.6-88.9l112.3-77.7c1.7-1.2,3.3-2.3,5-3.5
		c13.1-9.5,103-69,172.8,20.5c7,9,14.2,17.9,21.7,26.5l68.9,79.3c12.2,14,23.6,28.6,34.4,43.8l65.2,92.3
		c11,15.6,21.4,31.7,31.1,48.2l55.4,94.7l57.2,104.2l23.8,49.1c10.3,21.3,17,44.2,19.9,67.7l10.9,90.3"/>
	<path class="st1" d="M703.1,1874.8l195.4-259.2c7.2-12.3,15.6-23.9,25.1-34.5l26.7-29.7c13-14.4,29.7-24.8,48.3-29.9h0
		c20.7-5.7,42.2-7.4,63.5-5.1l25.7,2.7c19.5,2.1,38.7,6.6,57.1,13.4l39.5,14.7c26.3,9.8,51.3,22.5,74.8,38l33.3,22
		c20.1,13.3,39.1,28.2,57,44.5l42.5,38.9c8.2,7.5,16.1,15.2,23.7,23.2l51.4,42.6c17.9,18.7,75.1,66.6,75.1,66.6l121.9,103.8"/>
	<path class="st1" d="M1130.8,1624.7c0,0,169.8,291.1,463.3,367.4"/>
	<path class="st1" d="M1632.9,2050.4l-48.1,20.2c-27.4,11.5-57.9,13.5-86.5,5.6l-13.1-3.6c-12-3.3-23.6-7.9-34.6-13.8l-50.3-26.9
		c-15.6-8.3-31.5-16-47.8-22.8l-24.6-10.4"/>
	<polyline class="st1" points="720.6,110.1 729.1,612.9 729.1,1840.3 	"/>
	<path class="st1" d="M749.2,181.2c0,0,225.3,309.7-21.2,293.2"/>
	<path class="st1" d="M839.6,412.8l4.2,4.5c8.2,8.7,15.1,20.2,20.1,33.8l8.2,22.1c7.7,20.8,20.1,57.9,23.6,81.5l5.1,36.8l7.8,90.4
		c2.4,18.2,4,36.6,4.7,55.2l8.9,228.4l10.1,593.6"/>
	<path class="st1" d="M1002.1,1520.6l-9.1-401.3c-1.2-52.1-4.6-104-10.3-155.5l-3.5-31.3l-12-97.4l-7.7-86.3l-6.6-53.8
		c-3.3-26.6-7.5-53-12.7-79l-9.9-49.8l-13.6-59c-2.3-10.1-6-19.5-10.8-27.6v0c-3.5-5.9-7.6-11.3-12.3-16.2l-17.3-17.8l-18.8-12.2"/>
	<path class="st1" d="M1731.3,2145.4l-28.7,82.9c-4.1,11.7-6.1,24-6.1,36.4v0c0,14.7,9.1,27.9,22.9,33v0c8.9,3.3,15.4,11.2,17,20.6
		l17,97.9"/>
	<path class="st1" d="M1476,1765.4l95.9-167.3c9.1-17,19.8-33,31.7-47.8l26.6-32.9c8.7-10.7,18.4-20.5,29-29l17.4-14
		c12.1-9.8,26.5-15.8,41.7-17.4l7.4-0.8c15.3-1.6,30.7,3.3,42.7,13.7v0c7.9,6.9,13.9,16,17.1,26.4l3,9.5c5.3,16.9,7.2,34.7,5.6,52.3
		l-2.4,26.5c0,0-109.5-83.4-189.6-32.3"/>
	<path class="st1" d="M1747,1997.4l2-65.1c0.4-12.8,1.4-25.6,3-38.3l9.7-77.5l8.4-73c1.6-14,3.9-27.9,7-41.7l19.3-87.6
		c2.7-12.1,1.7-9.3-3.8-20.5l-0.4-10.3"/>
	
		<ellipse transform="matrix(0.7391 -0.6736 0.6736 0.7391 -928.884 1678.1948)" class="st1" cx="1702.1" cy="2038.3" rx="60.7" ry="178.8"/>
</g>
</svg>
