<?xml version="1.0" encoding="utf-8"?>
<!-- Generator: Adobe Illustrator 27.6.1, SVG Export Plug-In . SVG Version: 6.00 Build 0)  -->
<svg version="1.1" id="Слой_1" xmlns="http://www.w3.org/2000/svg" xmlns:xlink="http://www.w3.org/1999/xlink" x="0px" y="0px"
	 viewBox="0 0 600 400" style="enable-background:new 0 0 600 400;" xml:space="preserve">
<style type="text/css">
	.st0{fill:#EFC6DF;}
</style>
<path class="st0" d="M45,30.3l4-1.4c2.2-0.8,4.5-1.2,6.8-1.2h486.5c3.4,0,6.7,0.5,9.9,1.6l3.2,1.1c2.1,0.7,2.6,3.4,0.9,4.8
	l-241.4,206c0,0-15.2,11-28.4,0L44.2,35.1C42.5,33.7,43,31,45,30.3z"/>
<path class="st0" d="M272.5,264.4c30.5,22,55.1,0,55.1,0L576.2,52.7c1.3-1.1,3.3-0.7,4.1,0.8l1.1,2c0.8,1.5,1.2,3.1,1.2,4.7v276.6
	c-1.3,31.8-33.5,33.5-33.5,33.5H49.8c-33-5.9-32.6-35.2-32.6-35.2V62.3c0-2.1,0.5-4.2,1.3-6.2l0.8-1.9c0.8-1.8,3.2-2.3,4.7-1.1
	L272.5,264.4z"/>
</svg>
