<?xml version="1.0" encoding="utf-8"?>
<!-- Generator: Adobe Illustrator 27.6.1, SVG Export Plug-In . SVG Version: 6.00 Build 0)  -->
<svg version="1.1" id="Слой_1" xmlns="http://www.w3.org/2000/svg" xmlns:xlink="http://www.w3.org/1999/xlink" x="0px" y="0px"
	 viewBox="0 0 700 700" style="enable-background:new 0 0 700 700;" xml:space="preserve">
<style type="text/css">
	.st0{fill:#EFC6DF;}
</style>
<path class="st0" d="M197.2,497.8c105.5,114.6,269.6,141.7,306.7,145.1c5.1,0.5,10.2,1,15.3,1.7c53.9,6.9,71-10.3,71-10.3l51.7-53.8
	c1.5-1.7,3-4.4,4.3-7.4c13.3-30.9,5.6-67.2-19.3-89.9c-0.5-0.5-1-0.9-1.5-1.3c-10.5-9.2-23.2-15.7-36.8-19.2l-65-16.6
	c-25.1-6.4-51.9-1.9-73.3,12.7c-0.1,0-0.1,0.1-0.2,0.1c-0.8,0.5-1.5,1.1-2.1,1.8l-22.6,24c-4,4.3-10,6.1-15.7,4.7
	c-67.8-16.5-132.9-84.5-132.9-84.5s-51.7-52.9-69.6-120.3c-1.5-5.7,0.2-11.7,4.4-15.8l23.6-23.1c0.7-0.6,1.2-1.3,1.7-2.1
	c0-0.1,0.1-0.1,0.1-0.2c14.2-21.7,18.2-48.5,11.3-73.5l-17.9-64.6c-3.7-13.5-10.5-26.1-19.9-36.4c-0.4-0.5-0.9-1-1.4-1.5
	C185.8,43,149.4,36,118.7,50c-3,1.4-5.6,2.8-7.3,4.4l-52.7,52.7c0,0-16.8,17.4-8.9,71.2c0.7,5.1,1.4,10.1,2,15.2
	C56,230.5,80.5,394.6,197.2,497.8z"/>
</svg>
