<?xml version="1.0" encoding="utf-8"?>
<!-- Generator: Adobe Illustrator 27.6.1, SVG Export Plug-In . SVG Version: 6.00 Build 0)  -->
<svg version="1.1" id="Слой_1" xmlns="http://www.w3.org/2000/svg" xmlns:xlink="http://www.w3.org/1999/xlink" x="0px" y="0px"
	 viewBox="0 0 650.5 955.5" style="enable-background:new 0 0 650.5 955.5;" xml:space="preserve">
<style type="text/css">
	.st0{fill:#F7C6EC;stroke:#F7C6EC;stroke-miterlimit:10;}
</style>
<image style="display:none;overflow:visible;opacity:0.3;" width="512" height="512" xlink:href="free-icon-pin-927665.png"  transform="matrix(1.7762 0 0 1.7762 -127.7997 28.059)">
</image>
<path class="st0" d="M326.9,145.6c-76.3,0-138.1,61.8-138.1,138.1s61.8,138.1,138.1,138.1S465,360.1,465,283.8
	S403.2,145.6,326.9,145.6z M326.9,382.9c-54.7,0-99.1-44.4-99.1-99.1c0-54.7,44.4-99.1,99.1-99.1S426,229,426,283.8
	C426,338.5,381.6,382.9,326.9,382.9z"/>
<path class="st0" d="M326.9,30.4C187,30.4,73.6,149.6,73.6,296.7c0,50.9,13.6,98.5,37.2,138.9l0.1,0.1c19.6,33.5,46,62.1,77.2,83.7
	l-42.6-80c-25.8-39-33.4-84.2-35.4-113.4c0,0,0,0,0,0c-0.6-4.7-1-9.5-1.3-14.3c-0.1-1-0.1-2.1-0.2-3.1c0,0,0-0.1,0-0.1
	c0-0.4,0-0.7,0-1c-0.2-3.5-0.2-7.1-0.2-10.6c0-126.9,97.9-229.8,218.6-229.8s218.6,102.9,218.6,229.8c0,3.9-0.1,7.8-0.3,11.7
	c2.5,65.6-37.6,133.5-37.6,133.5l-28.3,52.2c32.2-22.2,56.4-46.4,72.9-75.4c4.5-7.9,8.4-16.1,11.8-24.7c0,0,0-0.1,0.1-0.1
	c1.1-2.7,2.1-5.5,3.1-8.3c8.8-25.6,13-54.8,13-88.8C580.2,149.6,466.8,30.4,326.9,30.4z"/>
<path class="st0" d="M326.9,66.9c-120.7,0-218.6,102.9-218.6,229.8c0,3.6,0.1,7.1,0.2,10.6c0,0.3,0,0.7,0,1c0,0,0,0.1,0,0.1
	c0,1,0.1,2.1,0.2,3.1c1.1,15.8,4.6,32,8.9,46.6c7.1,24.4,17.2,47.7,29.9,69.7l135.3,234.7l21.3,37l22.8,39.5l22.8-39.5l21.3-37
	l26.3-45.5l86.4-148.5c6.8-12.1,15.5-30,21.7-42.4c36.8-74.5,39.9-117.9,39.9-117.9c0.2-3.9,0.3-7.8,0.3-11.7
	C545.5,169.8,447.6,66.9,326.9,66.9z M326.9,421.9c-76.3,0-138.1-61.8-138.1-138.1s61.8-138.1,138.1-138.1S465,207.5,465,283.8
	S403.2,421.9,326.9,421.9z"/>
<path class="st0" d="M567.2,385.5c-0.5,1.9-1.5,4.7-3.1,8.3c0,0,0,0.1-0.1,0.1c-2.6,6.1-6.6,14.5-11.8,24.7
	c-27.9,55.1-89.1,163-138.4,248.5c-7.1,12.3-14,24.2-20.4,35.4c-27.1,46.8-47.4,81.6-51,87.8c-0.4,0.7-0.8,1.3-1.3,1.9
	c-6.8,8.4-14.5,7.9-20.3,5.4c-4.9-2.1-9-6-11.6-10.7l-47.8-84.6l-20-35.5L110.8,435.7l-0.1-0.1c0,0-4.4-172.5-2.2-128.3
	c0,0.3,0,0.7,0,1c0,0,0,0.1,0,0.1c0.8,16.7,4.5,34.2,9.1,49.8c7.1,24.4,17.2,47.7,29.9,69.7l135.3,234.7l21.3,37l22.8,39.5
	l22.8-39.5l21.3-37l26.3-45.5l86.4-148.5c6.8-12.1,15.5-30,21.7-42.4c36.8-74.5,39.9-117.9,39.9-117.9L567.2,385.5z"/>
<path class="st0" d="M304.2,699.6l-21.3-37 M393.5,702.6C503.3,714,584,753,584,799.3c0,55.3-115.1,100.1-257.1,100.1
	S69.8,854.6,69.8,799.3c0-46.5,81.4-85.6,191.7-96.8L241.4,667C119.7,684.1,31,736.8,31,799.3c0,76.3,132.5,138.2,295.9,138.2
	s295.9-61.9,295.9-138.2c0-62.2-87.9-114.7-208.8-132.1L393.5,702.6z M371,662.6l-21.3,37"/>
</svg>
