<?xml version="1.0" encoding="utf-8"?>
<!-- Generator: Adobe Illustrator 27.6.1, SVG Export Plug-In . SVG Version: 6.00 Build 0)  -->
<svg version="1.1" id="Слой_1" xmlns="http://www.w3.org/2000/svg" xmlns:xlink="http://www.w3.org/1999/xlink" x="0px" y="0px"
	 viewBox="0 0 600 600" style="enable-background:new 0 0 600 600;" xml:space="preserve">
<style type="text/css">
	.st0{fill:#EFC6DF;}
</style>
<path class="st0" d="M300,21.2C146,21.2,21.2,146,21.2,300S146,578.8,300,578.8S578.8,454,578.8,300S454,21.2,300,21.2z
	 M431.1,208.6l-35.3,216.6c-5.1,28.5-35.6,12.7-35.6,12.7l-97.7-67.8c-10.7-10.2-0.9-20-0.9-20l92.1-90.1c5.6-13.8-8.2-6.5-8.2-6.5
	l-124,82.5c-13.3,10.2-35.8,4.2-35.8,4.2l-51.4-15.8c-22.3-10.2,0-21.7,0-21.7l260.6-110.1c21.2-9,29.1-3.1,29.1-3.1
	C432.8,193.9,431.1,208.6,431.1,208.6z"/>
</svg>
