<?xml version="1.0" encoding="utf-8"?>
<!-- Generator: Adobe Illustrator 27.6.1, SVG Export Plug-In . SVG Version: 6.00 Build 0)  -->
<svg version="1.1" id="Слой_1" xmlns="http://www.w3.org/2000/svg" xmlns:xlink="http://www.w3.org/1999/xlink" x="0px" y="0px"
	 viewBox="0 0 300 300" style="enable-background:new 0 0 300 300;" xml:space="preserve">
<style type="text/css">
	.st0{fill:#EFC6DF;}
</style>
<path class="st0" d="M213.09,29.42H86.91c-31.62,0-57.49,25.87-57.49,57.49v126.18c0,31.62,25.87,57.49,57.49,57.49h126.18
	c31.62,0,57.49-25.87,57.49-57.49V86.91C270.58,55.29,244.71,29.42,213.09,29.42z M201.15,203.3
	c-11.86-34.85-40.66-35.66-40.66-35.66v35.57c-94.23,3.6-90.63-100.16-90.63-100.16h27.31c3.6,66.49,36.85,69.24,36.85,69.24v-69.24
	h26.05v39.17c29.64-5.71,37.48-39.17,37.48-39.17h25.41c1.7,24.35-33.46,50.13-33.46,50.13c35.16,19.42,40.66,50.12,40.66,50.12
	H201.15z"/>
</svg>
