<?xml version="1.0" encoding="utf-8"?>
<!-- Generator: Adobe Illustrator 27.6.1, SVG Export Plug-In . SVG Version: 6.00 Build 0)  -->
<svg version="1.1" id="Слой_1" xmlns="http://www.w3.org/2000/svg" xmlns:xlink="http://www.w3.org/1999/xlink" x="0px" y="0px"
	 viewBox="0 0 900 773.8" style="enable-background:new 0 0 900 773.8;" xml:space="preserve">
<style type="text/css">
	.st0{fill:#EFC6DF;}
</style>
<path class="st0" d="M845.6,428.7c0,0-28.8,55.9-65.6,84.3c1.1-1.1,72.4-76.2,67.8-120.3c0,0-25.8-18.6-31.8-34.7
	c0,0-35.6,80-111.4,141.4c1.6-1.6,105.9-105.3,115.2-195.2c0,0-38.1-81.7-71.2-121.6c0,0-11.4,60.5-72.8,116
	c2.1-2.3,68.9-76.1,87.6-233.3l-41.9-49.1c0,0,25.4,140.2-116,333.3c0.7-2,47.4-139.2,39.8-292.2l-51.2-43.6
	c0,0,48.3,397.3-195.7,686.1c0,0,119.4,6.8,142.3,33c0,0,208.4-85.6,327-291.4L845.6,428.7z M555.1,506.2
	c8.5,76.1-78.3,143-79.6,144C476.6,649,548,572.6,555.1,506.2z M555.7,590.1c0,0-15.6,99.8-135,103.9
	C424.8,693.7,513.7,686,555.7,590.1z M473.3,698.5c0,0,72.4-26.7,102.1-87.2C575.4,611.2,563.6,682.4,473.3,698.5z M753.3,283
	c1.2,61.7-71.4,153.3-73.7,156.1C715.6,388.1,753.3,283,753.3,283z M751.2,368.1c0,0,12.7,53.8-102,149.9
	C650.4,516.7,733.5,432,751.2,368.1z M665.6,626.1c0,0,42.3-25.4,61.8-55.9C727.5,570.2,707.6,618.4,665.6,626.1z"/>
<path class="st0" d="M303.1,245.4c0,0,35.6,14.6,47.1,25.8l17.1-8.3c0,0,37.9-63.1,23.5-79.6C390.8,183.3,374.1,153.7,303.1,245.4z"
	/>
<path class="st0" d="M493.7,327.9l-4.2-12.7l-12.3-14.8l3.8-30.5c0,0-27.1-16.1-34.7-47.9c-7.6-31.8-44-37.7-44-37.7
	c4.5,37.5-23.5,80.7-23.5,80.7l-57.2,124.5c-65.8,167.5-19.3,262.4-19.3,262.4c37.3,70.5,96.1,31.1,96.1,31.1l26.7-28
	C269.9,751,329.8,495,330.6,491.4C295.1,765,437.1,639.1,437.1,639.1c-92.3,50.2-85.3-38.1-85.3-38.1c19.2,90.3,89.8,31.5,89.8,31.5
	l46.6-89.4c-61-26.7,2.1-198.2,2.1-198.2L493.7,327.9z M396.3,298.7c-11.3,10.9-38,68.2-38.5,69.4c0.2-0.8,8.4-27.8,32.2-73.7
	c24.2-46.6,23.7-90.6,23.7-90.6C436.1,255.1,396.3,298.7,396.3,298.7z M416.6,324.5c35.6-52.9,19-90.6,19-90.6
	C471.2,278.2,417.9,323.4,416.6,324.5z"/>
<path class="st0" d="M98.4,654.9l-20.7-8.6h0C83.6,648,90.6,650.7,98.4,654.9z"/>
<path class="st0" d="M137.4,679.4l-16.6-11.9C127.6,671.5,133,675.5,137.4,679.4z"/>
<path class="st0" d="M151.4,695.8c-0.2-0.4-0.5-0.8-0.8-1.2l-90.4-50.7c-0.7,0-1.4,0-2,0.1c-2.2,0.1-4.1,1.3-5.1,3.2l-27.7,49.1
	c-1.5,2.7-1.8,6-0.8,8.9c2.5,7,10.9,19.6,40.9,35.2c27.3,16.6,42.6,18.4,50.3,17.3c3.7-0.5,6.9-2.7,8.7-5.9l26.8-47.8
	C152.8,701.3,152.8,698.2,151.4,695.8z M32.9,703.1c50.4,9.2,82.7,46.5,82.7,46.5C65.3,744.2,32.9,703.1,32.9,703.1z M121.3,741.8
	c0,0-34-37.1-85.4-47.9l23.3-42.1c0,0,47,7.1,84.8,47.4L121.3,741.8z"/>
<path class="st0" d="M358.5,283.4c-0.5-0.5-0.9-1-1.3-1.5c-2.2-2.6-11-12.8-32.6-23.1c-20.7-11.4-34.1-13.2-37.5-13.4
	c-0.7,0-1.3-0.1-2-0.2c-11.7-1.6-15,2.6-15.9,4.2c-0.4,0.7-0.7,1.5-1.1,2.2l-42.5,75c-1,1.7-1.4,3.7-1.2,5.7l0.7,6.9L60.3,643.8
	c3.9,0,9.8,0.5,17.4,2.6h0l15.5-2.6l5.3,11.2c1,0.5,2,1.1,3,1.6c2.7,1.5,5.4,3.1,8.1,4.6l-7.3-19.8l20-3.8l7.5,19.4l-20.2,4.2
	c2.8,1.6,5.6,3.1,8.4,4.7c0.9,0.5,1.9,1.1,2.8,1.6l11.2-2.3l5.6,14.2c6.8,5.9,10.8,11.3,13.2,15.2l165.8-307.9l6.1-3.4
	c1.7-1,3.1-2.4,3.9-4.2l36.7-78c0.3-0.7,0.7-1.5,1.1-2.2C365.1,297.2,366.6,292,358.5,283.4z M135.3,567.3l-7.6-17.9l18.5-3.4
	l7.5,17.2L135.3,567.3z M135.9,596.8l-18.6,3.2l-8.6-17.5l19.6-4.5L135.9,596.8z M198.9,497.5l-7.2-19.1l19.2-3.7l6.5,19.1
	L198.9,497.5z M200.3,526.1l-19.3,3.5l-6.6-18.8l19.2-2.8L200.3,526.1z M216.4,464.1l-7.1-18.1l18.5-3.1l7.2,17.5L216.4,464.1z
	 M234.2,432.5l-7.4-18.9l19.1-4.1l7.2,18.8L234.2,432.5z M223.6,405l-7.2-18.9l18.8-3.4l7.2,18.1L223.6,405z M217.1,415.4l7.2,18.2
	l-18.4,4l-7.1-18.6L217.1,415.4z M200.3,448.2l6.3,17.9l-18.8,3.5l-6.9-17.8L200.3,448.2z M182.5,480.4l6.9,18l-19.5,3.7l-6.4-18.2
	L182.5,480.4z M164.5,513l7.3,18.6l-19.1,3.2l-7.2-17.9L164.5,513z M156.4,572.6l8.5,19.1l-20,3.2l-6.6-18.8L156.4,572.6z
	 M161.8,562.4l-5.4-18.9l17.9-2.7l8,18.2L161.8,562.4z M185.1,567.3l7.8,18.5l-18.5,3l-7-17.8L185.1,567.3z M191.7,556.2l-7.4-16.7
	l17.8-3.7l7.8,17.1L191.7,556.2z M208.5,523.9l-6.4-18.2l18.3-3.5l7.1,18.2L208.5,523.9z M226.3,491.2l-6.5-18.1l19.1-3.5l7.1,18.2
	L226.3,491.2z M245.2,458.8L238,441l18.2-3.4l7.2,17.5L245.2,458.8z M262,426.4l-6.6-18.5l18.8-3.5l7.1,18.6L262,426.4z
	 M279.5,394.3l-6.8-18.8l19.1-3.2l7.7,17.9L279.5,394.3z M268.9,366.6l-5.9-15.8l24,12.3L268.9,366.6z M270.2,395.4l-18.2,3.5
	l-6.8-17.8l17.8-3.4L270.2,395.4z M241.4,372.2l-7.2-18.6l19.2-3.8l7.5,18.3L241.4,372.2z M226.2,357.3l6.4,16.5l-17.8,3.4
	L226.2,357.3z M208.2,391.4l6.5,15.4l-17.5,2.7L208.2,391.4z M190.2,423.2l7.1,16l-17.2,3L190.2,423.2z M172.1,455.1l7.9,16.2
	l-18.5,3.4L172.1,455.1z M154.6,487.9l6.9,16.2l-17.5,3.1L154.6,487.9z M137.1,521.3l6.9,15.2l-17.4,3.7L137.1,521.3z M119.6,552.9
	l7.1,16.8l-18.6,3.8L119.6,552.9z M73,637.6L84.7,618l6.4,16.5L73,637.6z M101.6,585.8l7,16.2L91,605.3L101.6,585.8z M99.9,632.7
	l-8.1-18.1l19.5-3.7l7.3,18.5L99.9,632.7z M127.5,627.8l-6.8-18.7l19.1-3.8l7.2,18.2L127.5,627.8z M138.6,654.9l-7.6-18.6l18.8-3.7
	l7.6,17.8L138.6,654.9z M148.1,680.8l-7.1-17.9l17.5-2.4L148.1,680.8z M165.7,647.5l-6.5-16.7l16.2-3L165.7,647.5z M156,621.8
	l-7.8-18.3l20.1-3.4l7.2,18.6L156,621.8z M183.7,613.6l-5.8-15.7l15.7-2.4L183.7,613.6z M201,581.9l-6.5-15.8l16.4-2.8L201,581.9z
	 M219.5,548.3l-7.5-15.8l16.8-1.7L219.5,548.3z M237,515.8l-7.3-15.7l17.2-2.6L237,515.8z M254.5,483.9l-6.6-16l16.4-3L254.5,483.9z
	 M272.7,450.9l-7.1-15.4l16.4-2.8L272.7,450.9z M290.1,418l-7.1-15.2l16.6-2.3L290.1,418z M317.6,379.3c-0.1,1-1.5,1.2-1.9,0.3
	c-2.8-5.7-10.3-19.9-34.4-31.7c-22.1-15.3-39.7-15.7-46-15.3c-1,0.1-1.4-1.2-0.6-1.8c4-2.8,15.8-5.4,49.2,12.9
	C316.1,363.8,318.1,374.5,317.6,379.3z M324.1,368.1c-29.7-46.2-84.6-48.3-84.6-48.3l37.4-66.4c59,3.5,82.8,46.5,82.8,46.5
	L324.1,368.1z"/>
<path class="st0" d="M150.6,694.5l-90.4-50.7c3.9,0,9.8,0.5,17.4,2.6l20.7,8.6l0,0c1,0.5,2,1.1,3,1.6c2.7,1.5,5.4,3.1,8.1,4.6
	c2.8,1.6,5.6,3.1,8.4,4.7c0.9,0.5,1.9,1.1,2.8,1.6l0.1,0l16.6,11.9l0,0C144.2,685.3,148.3,690.7,150.6,694.5z"/>
</svg>
